<?xml version="1.0" standalone="no"?>
<!DOCTYPE svg PUBLIC "-//W3C//DTD SVG 20010904//EN"
 "http://www.w3.org/TR/2001/REC-SVG-20010904/DTD/svg10.dtd">
<svg version="1.0" xmlns="http://www.w3.org/2000/svg"
 width="225.000000pt" height="225.000000pt" viewBox="0 0 225.000000 225.000000"
 preserveAspectRatio="xMidYMid meet">
<metadata>
Created by potrace 1.15, written by Peter Selinger 2001-2017
</metadata>
<g transform="translate(0.000000,225.000000) scale(0.100000,-0.100000)"
fill="#000000" stroke="none">
<path d="M1004 1984 c-75 -27 -115 -91 -91 -144 6 -12 -3 -22 -31 -38 -124
-69 -212 -250 -212 -432 l1 -75 20 28 c11 15 28 27 38 27 25 0 111 -91 111
-118 0 -12 13 -36 29 -54 26 -29 36 -33 79 -33 57 0 86 20 109 74 13 31 17 33
51 27 20 -3 47 -6 60 -6 13 0 22 -6 22 -16 0 -9 15 -31 34 -50 44 -44 99 -47
144 -9 27 23 31 23 38 7 4 -9 10 -78 13 -152 l6 -134 42 64 c97 151 133 250
140 387 5 84 2 113 -15 170 -32 104 -125 229 -220 294 -35 25 -41 34 -36 55
10 40 -14 82 -64 112 -39 22 -59 27 -137 29 -61 2 -103 -2 -131 -13z m62 -446
c55 -20 173 -99 212 -141 l24 -25 -31 -7 c-29 -6 -81 -55 -81 -76 0 -5 -28 -9
-62 -9 -60 0 -64 2 -80 30 -25 44 -81 65 -130 51 -21 -7 -46 -22 -55 -36 l-18
-24 -37 36 -37 36 48 37 c26 21 72 65 102 99 59 66 51 64 145 29z m-57 -234
c27 -35 26 -66 -2 -100 -17 -20 -33 -27 -57 -27 -39 0 -80 40 -80 79 0 66 98
100 139 48z m350 -22 l24 -44 -20 -26 c-30 -40 -93 -43 -122 -6 -28 35 -27 69
4 100 40 40 83 31 114 -24z"/>
</g>
</svg>
