<?xml version="1.0" encoding="iso-8859-1"?>
<!-- Generator: Adobe Illustrator 18.0.0, SVG Export Plug-In . SVG Version: 6.00 Build 0)  -->
<!DOCTYPE svg PUBLIC "-//W3C//DTD SVG 1.1//EN" "http://www.w3.org/Graphics/SVG/1.1/DTD/svg11.dtd">
<svg version="1.1" id="Capa_1" xmlns="http://www.w3.org/2000/svg" xmlns:xlink="http://www.w3.org/1999/xlink" x="0px" y="0px"
	 viewBox="0 0 380 380" style="enable-background:new 0 0 380 380;" xml:space="preserve">
<g>
	<path d="M68.335,42.365h271.429v106.723h25.784V18.325c0-3.538-2.868-6.407-6.407-6.407H48.958c-3.538,0-6.407,2.869-6.407,6.407
		v99.65h25.784V42.365z"/>
	<path d="M171.443,135.486H6.408c-3.541,0-6.408,2.868-6.408,6.408v219.78c0,3.538,2.867,6.407,6.408,6.407h165.035
		c3.539,0,6.408-2.869,6.408-6.407v-219.78C177.852,138.355,174.982,135.486,171.443,135.486z M88.926,356.227
		c-3.892,0-7.049-3.154-7.049-7.048c0-3.893,3.156-7.048,7.049-7.048c3.893,0,7.047,3.155,7.047,7.048
		C95.973,353.072,92.818,356.227,88.926,356.227z M153.525,326.095H24.324V167.863h129.201V326.095z"/>
	<rect x="194.018" y="251.783" width="60.244" height="34.692"/>
	<path d="M194.018,244.514h60.244v-40.06h-60.244V244.514z M204.049,218.563c3.896,0,7.05,3.157,7.05,7.049
		c0,3.893-3.154,7.049-7.05,7.049c-3.893,0-7.048-3.156-7.048-7.049C197.001,221.72,200.156,218.563,204.049,218.563z"/>
	<path d="M374.574,163.912h-98.719c-2.998,0-5.426,2.428-5.426,5.424v186.052c0,2.995,2.428,5.423,5.426,5.423h98.719
		c2.998,0,5.426-2.428,5.426-5.423V169.336C380,166.34,377.572,163.912,374.574,163.912z M325.215,350.775
		c-3.297,0-5.967-2.67-5.967-5.964c0-3.298,2.67-5.968,5.967-5.968c3.295,0,5.967,2.67,5.967,5.968
		C331.182,348.105,328.51,350.775,325.215,350.775z M360.5,324.833h-70.57v-133.08h70.57V324.833z"/>
</g>
<g>
</g>
<g>
</g>
<g>
</g>
<g>
</g>
<g>
</g>
<g>
</g>
<g>
</g>
<g>
</g>
<g>
</g>
<g>
</g>
<g>
</g>
<g>
</g>
<g>
</g>
<g>
</g>
<g>
</g>
</svg>
