<?xml version="1.0" standalone="no"?>
<!DOCTYPE svg PUBLIC "-//W3C//DTD SVG 20010904//EN"
 "http://www.w3.org/TR/2001/REC-SVG-20010904/DTD/svg10.dtd">
<svg version="1.0" xmlns="http://www.w3.org/2000/svg"
 width="77.000000pt" height="62.000000pt" viewBox="0 0 77.000000 62.000000"
 preserveAspectRatio="xMidYMid meet">
<metadata>
Created by potrace 1.15, written by Peter Selinger 2001-2017
</metadata>
<g transform="translate(0.000000,62.000000) scale(0.100000,-0.100000)"
fill="#222222" stroke="none">
<path d="M0 310 l0 -310 385 0 385 0 0 310 0 310 -385 0 -385 0 0 -310z m523
244 c199 -70 233 -264 65 -370 -48 -31 -137 -54 -205 -54 -35 0 -78 -10 -129
-30 -42 -17 -79 -29 -81 -26 -2 2 7 26 20 52 l24 48 -48 45 c-36 34 -52 58
-61 93 -45 176 199 318 415 242z"/>
</g>
</svg>
