<svg fill="#222222" height="586.66669pt" viewBox="-18 -18 586.66669 586.66669" width="586.66669pt" xmlns="http://www.w3.org/2000/svg"><path d="m110 410h80v80h-80zm0 0"/><path d="m270 330h80v160h-80zm0 0"/><path d="m430 190h80v300h-80zm0 0"/><path d="m104.140625 350h65.859375c2.652344 0 5.195312-1.054688 7.070312-2.929688l97.070313-97.070312h45.859375c2.652344 0 5.195312-1.054688 7.070312-2.929688l132.929688-132.929687v35.859375h20v-60c0-5.523438-4.476562-10-10-10h-60v20h35.859375l-130 130h-45.859375c-2.652344 0-5.195312 1.054688-7.070312 2.929688l-97.070313 97.070312h-65.859375c-2.652344 0-5.195312 1.054688-7.070312 2.929688l-30 30 14.140624 14.140624zm0 0"/><path d="m60 490v-490h-20v90h-30v20h30v60h-30v20h30v60h-30v20h30v60h-30v20h30v60h-30v20h30v70c0 5.523438 4.476562 10 10 10h500v-20zm0 0"/><path d="m0 530h60v20h-60zm0 0"/><path d="m120 530h60v20h-60zm0 0"/><path d="m280 530h60v20h-60zm0 0"/><path d="m450 530h60v20h-60zm0 0"/></svg>