<?xml version="1.0" standalone="no"?>
<!DOCTYPE svg PUBLIC "-//W3C//DTD SVG 20010904//EN"
 "http://www.w3.org/TR/2001/REC-SVG-20010904/DTD/svg10.dtd">
<svg version="1.0" xmlns="http://www.w3.org/2000/svg"
 width="326.000000pt" height="280.000000pt" viewBox="0 0 326.000000 280.000000"
 preserveAspectRatio="xMidYMid meet">
<metadata>
Created by potrace 1.15, written by Peter Selinger 2001-2017
</metadata>
<g transform="translate(0.000000,280.000000) scale(0.100000,-0.100000)"
 fill="#222222" stroke="none">
<path d="M2100 2701 c-107 -35 -163 -109 -163 -216 0 -201 237 -301 379 -159
52 51 68 99 62 179 -7 77 -41 134 -102 170 -48 28 -132 41 -176 26z"/>
<path d="M1535 2423 c-148 -78 -173 -264 -49 -372 47 -42 73 -51 145 -51 241
0 309 332 87 424 -48 20 -144 20 -183 -1z"/>
<path d="M999 2153 c-76 -39 -112 -93 -117 -178 -6 -99 28 -166 108 -213 90
-53 223 -29 285 52 118 155 13 366 -182 366 -23 0 -62 -11 -94 -27z"/>
<path d="M1922 2096 c-11 -24 -37 -62 -57 -85 l-37 -41 30 0 c81 0 211 -80
248 -152 l15 -28 235 0 236 0 -4 93 c-2 75 -8 102 -29 142 -33 65 -98 107
-174 113 -49 4 -61 0 -140 -42 l-87 -46 -83 45 c-107 58 -128 59 -153 1z"/>
<path d="M1392 1832 c-12 -27 -39 -68 -60 -92 -20 -24 -32 -41 -27 -38 16 10
103 -10 152 -34 47 -23 106 -82 125 -124 l11 -24 234 0 233 0 0 83 c0 107 -12
145 -61 201 -30 34 -53 49 -92 61 -76 23 -99 19 -188 -30 -45 -25 -85 -45 -89
-45 -4 0 -46 20 -91 45 -109 58 -120 58 -147 -3z"/>
<path d="M2150 1610 l0 -90 290 0 290 0 0 -175 0 -175 -65 0 -65 0 0 -175 0
-175 220 0 220 0 0 350 0 350 65 0 65 0 0 90 0 90 -510 0 -510 0 0 -90z"/>
<path d="M792 1589 c-82 -41 -122 -123 -122 -250 l0 -79 430 0 430 0 0 81 c0
99 -13 146 -53 195 -39 47 -98 74 -163 74 -43 0 -66 -8 -132 -45 l-81 -44 -79
44 c-95 53 -157 60 -230 24z"/>
<path d="M1620 1345 l0 -85 290 0 290 0 0 -180 0 -180 -65 0 -65 0 2 -172 3
-173 195 -3 c107 -1 205 0 218 3 l22 5 0 350 0 350 65 0 65 0 0 85 0 85 -510
0 -510 0 0 -85z"/>
<path d="M90 1085 l0 -85 65 0 65 0 0 -355 0 -355 880 0 880 0 2 353 3 352 63
0 62 0 0 88 0 87 -1010 0 -1010 0 0 -85z"/>
</g>
</svg>
