<?xml version="1.0" standalone="no"?>
<!DOCTYPE svg PUBLIC "-//W3C//DTD SVG 20010904//EN"
 "http://www.w3.org/TR/2001/REC-SVG-20010904/DTD/svg10.dtd">
<svg version="1.0" xmlns="http://www.w3.org/2000/svg"
 width="234.000000pt" height="215.000000pt" viewBox="0 0 234.000000 215.000000"
 preserveAspectRatio="xMidYMid meet">
<metadata>
Created by potrace 1.15, written by Peter Selinger 2001-2017
</metadata>
<g transform="translate(0.000000,215.000000) scale(0.100000,-0.100000)"
fill="#222222" stroke="none">
<path d="M833 2140 c-195 -35 -368 -166 -452 -343 -45 -94 -59 -148 -67 -249
-11 -140 42 -309 134 -427 43 -55 138 -141 157 -141 5 0 -31 -22 -80 -48 -115
-60 -173 -103 -256 -189 -153 -158 -243 -358 -265 -590 -8 -84 4 -125 42 -142
36 -16 50 -14 78 12 21 19 26 35 35 123 42 403 325 690 723 730 128 13 312
-30 432 -102 32 -19 60 -33 61 -32 1 2 12 21 24 43 11 22 28 50 37 61 14 21
13 23 -15 43 -16 12 -59 35 -95 52 l-66 31 48 38 c112 88 194 214 228 349 24
98 16 274 -18 368 -68 189 -227 341 -418 397 -68 20 -199 28 -267 16z m212
-164 c165 -44 297 -176 340 -341 28 -111 16 -235 -36 -341 -12 -26 -49 -75
-82 -110 -196 -210 -525 -195 -699 33 -67 89 -90 157 -96 278 -5 114 15 191
70 277 60 96 180 182 285 207 58 14 162 12 218 -3z"/>
<path d="M1753 986 c-232 -57 -392 -295 -353 -527 46 -271 303 -445 571 -385
240 53 401 289 361 529 -46 272 -311 448 -579 383z m272 -115 c83 -38 148
-105 188 -189 27 -59 31 -78 31 -152 0 -74 -4 -93 -31 -152 -40 -86 -105 -151
-191 -191 -59 -27 -77 -31 -152 -31 -121 0 -185 27 -271 113 -89 89 -112 149
-107 276 4 107 32 175 102 246 116 118 284 149 431 80z"/>
<path d="M1832 748 c-7 -7 -12 -43 -12 -90 l0 -78 -75 0 c-62 0 -79 -4 -95
-20 -24 -24 -24 -30 -6 -55 12 -16 29 -20 95 -23 l81 -4 0 -77 c0 -81 9 -101
45 -101 36 0 45 20 45 102 l0 78 68 0 c76 0 116 16 120 47 5 35 -33 53 -115
53 l-73 0 0 78 c0 82 -9 102 -45 102 -12 0 -26 -5 -33 -12z"/>
</g>
</svg>
