<?xml version="1.0" standalone="no"?>
<!DOCTYPE svg PUBLIC "-//W3C//DTD SVG 20010904//EN"
 "http://www.w3.org/TR/2001/REC-SVG-20010904/DTD/svg10.dtd">
<svg version="1.0" xmlns="http://www.w3.org/2000/svg"
 width="512.000000pt" height="512.000000pt" viewBox="0 0 512.000000 512.000000"
 preserveAspectRatio="xMidYMid meet">
<metadata>
Created by potrace 1.15, written by Peter Selinger 2001-2017
</metadata>
<g transform="translate(0.000000,512.000000) scale(0.100000,-0.100000)"
fill="#000000" stroke="none">
<path d="M203 4958 c-174 -172 -196 -198 -191 -231 3 -19 32 5 192 163 103
102 192 193 197 203 8 14 5 17 -17 17 -21 0 -60 -33 -181 -152z"/>
<path d="M303 4858 c-140 -139 -264 -265 -275 -281 -10 -15 -18 -37 -16 -50 3
-18 49 23 292 263 158 157 292 293 297 303 8 14 5 17 -17 17 -22 0 -75 -47
-281 -252z"/>
<path d="M402 4758 c-194 -194 -362 -365 -373 -381 -11 -15 -19 -37 -17 -50 4
-18 67 40 392 363 213 212 392 393 397 403 8 14 5 17 -18 17 -22 0 -89 -62
-381 -352z"/>
<path d="M502 4658 c-249 -249 -462 -465 -473 -481 -11 -15 -19 -37 -17 -50 4
-18 84 57 492 463 268 267 492 493 497 503 8 14 5 17 -18 17 -22 0 -104 -76
-481 -452z"/>
<path d="M602 4558 c-304 -304 -562 -565 -573 -581 -11 -15 -19 -37 -17 -50 4
-18 101 75 592 563 323 322 592 593 597 603 8 14 5 17 -18 17 -23 0 -118 -91
-581 -552z"/>
<path d="M702 4458 c-359 -359 -662 -665 -673 -681 -11 -15 -19 -37 -17 -50 4
-18 118 92 692 663 378 377 692 693 697 703 8 14 5 17 -18 17 -23 0 -133 -106
-681 -652z"/>
<path d="M802 4358 c-414 -414 -762 -765 -773 -781 -11 -15 -19 -37 -17 -50 4
-18 136 109 792 763 433 432 792 793 797 803 8 14 5 17 -18 17 -23 0 -148
-120 -781 -752z"/>
<path d="M902 4258 c-469 -469 -862 -865 -873 -881 -11 -15 -19 -37 -17 -50 4
-18 153 126 892 863 488 487 892 893 897 903 8 14 5 17 -18 17 -23 0 -162
-135 -881 -852z"/>
<path d="M1002 4158 c-524 -524 -962 -965 -973 -981 -11 -15 -19 -37 -17 -50
4 -18 104 77 606 578 451 450 602 594 602 577 0 -12 3 -22 8 -22 4 0 16 -7 27
-15 18 -15 -13 -48 -613 -648 -526 -526 -632 -637 -632 -660 0 -15 3 -27 7
-27 4 0 299 291 655 647 609 609 648 646 648 615 0 -25 -8 -40 -31 -59 -24
-21 -30 -32 -27 -59 2 -33 -23 -60 -625 -662 -521 -522 -627 -632 -627 -655 0
-15 3 -27 7 -27 4 0 297 289 650 642 l643 642 -6 -69 -6 -70 -644 -645 c-536
-537 -644 -650 -644 -673 0 -15 3 -27 7 -27 4 0 293 285 641 633 l634 632 -5
-69 -5 -69 -636 -636 c-529 -530 -636 -641 -636 -664 0 -15 3 -27 7 -27 4 0
290 282 634 626 l627 627 -5 -69 -5 -69 -629 -630 c-523 -524 -629 -635 -629
-658 0 -15 3 -27 7 -27 4 0 286 278 626 618 l619 617 -6 -70 -6 -69 -620 -621
c-515 -516 -620 -625 -620 -648 0 -15 3 -27 7 -27 4 0 287 279 629 621 l621
621 17 -48 16 -48 -645 -646 c-541 -541 -645 -650 -645 -673 0 -23 3 -26 18
-18 9 5 302 296 651 645 552 552 636 633 647 618 10 -14 14 -11 24 25 7 23 29
58 50 78 l37 36 6 -58 6 -58 -719 -720 c-600 -601 -720 -725 -720 -748 0 -15
3 -27 7 -27 4 0 330 323 725 717 394 394 719 715 721 713 2 -3 10 -23 19 -45
l15 -40 -743 -745 c-620 -622 -744 -750 -744 -773 0 -15 3 -27 7 -27 4 0 344
336 755 747 l748 748 29 -35 30 -35 -785 -785 c-654 -656 -784 -790 -784 -813
0 -15 3 -27 7 -27 4 0 366 359 805 797 l797 797 20 -45 19 -44 -824 -825
c-694 -695 -824 -830 -824 -853 0 -23 3 -26 17 -18 10 5 385 377 833 825 448
449 818 816 821 816 3 0 14 -18 24 -41 l19 -40 -857 -857 c-717 -717 -857
-862 -857 -885 0 -15 3 -27 7 -27 4 0 164 156 356 347 338 337 348 346 318
285 -17 -34 -41 -86 -52 -115 -18 -45 -62 -94 -325 -358 -247 -248 -304 -310
-304 -332 0 -15 3 -27 7 -27 4 0 133 125 286 278 154 152 277 269 274 260 -3
-9 -11 -45 -17 -80 l-11 -63 -270 -271 c-217 -219 -269 -276 -269 -297 0 -15
3 -27 7 -27 4 0 127 119 273 265 l266 266 13 -52 13 -51 -286 -287 c-232 -233
-286 -293 -286 -314 0 -15 3 -27 7 -27 4 0 138 131 299 291 l291 291 28 -37
28 -36 -301 -303 c-166 -166 -302 -305 -302 -309 0 -4 12 -7 27 -7 22 0 82 55
322 294 l296 294 38 -26 38 -25 -260 -262 c-144 -143 -261 -264 -261 -268 0
-4 12 -7 27 -7 21 0 76 49 283 256 l258 256 42 -22 43 -22 -227 -227 c-124
-125 -226 -230 -226 -234 0 -4 12 -7 27 -7 21 0 71 45 253 225 l226 225 48
-16 48 -17 -201 -201 c-111 -111 -201 -205 -201 -209 0 -4 12 -7 26 -7 22 0
68 41 229 200 l201 200 53 -12 52 -12 -181 -181 c-99 -100 -180 -184 -180
-188 0 -4 12 -7 26 -7 21 0 65 38 209 181 179 177 184 181 217 174 76 -15 80
-7 -91 -179 -89 -89 -161 -165 -161 -169 0 -4 12 -7 26 -7 21 0 63 36 193 165
l167 165 52 -7 c29 -3 52 -9 52 -12 0 -3 -61 -67 -136 -141 -156 -155 -167
-170 -128 -170 21 0 59 33 178 150 146 143 154 150 192 149 85 -1 83 -5 -52
-139 -145 -145 -157 -160 -118 -160 20 0 58 31 168 140 l142 140 57 0 c31 0
57 -3 57 -8 0 -4 -52 -59 -116 -122 -135 -135 -146 -150 -108 -150 20 0 57 30
163 135 144 141 147 143 220 129 l32 -7 -120 -122 c-67 -67 -121 -125 -121
-128 0 -4 12 -7 26 -7 20 0 57 31 158 130 l132 130 52 0 c28 0 53 -4 56 -8 3
-5 -42 -55 -100 -113 -125 -123 -136 -139 -98 -139 20 0 55 29 153 125 l128
125 63 0 64 0 -117 -118 c-64 -66 -117 -122 -117 -125 0 -4 12 -7 26 -7 20 0
56 30 153 125 l128 125 63 0 64 0 -117 -118 c-64 -66 -117 -122 -117 -125 0
-4 12 -7 26 -7 20 0 56 30 154 126 l129 126 68 5 68 5 -122 -124 c-68 -69
-123 -128 -123 -131 0 -4 12 -7 26 -7 20 0 57 30 158 129 l131 130 70 7 70 7
-127 -130 c-71 -71 -128 -133 -128 -136 0 -4 12 -7 26 -7 20 0 59 32 168 139
l141 138 69 6 70 7 -137 -139 c-75 -75 -137 -141 -137 -144 0 -4 12 -7 26 -7
20 0 60 33 178 149 150 148 151 149 206 156 30 3 64 9 75 12 11 3 -49 -64
-132 -149 -84 -85 -153 -158 -153 -161 0 -4 12 -7 26 -7 21 0 63 36 193 165
l167 164 72 16 c41 8 76 15 80 15 3 0 -71 -78 -166 -173 -95 -95 -172 -176
-172 -180 0 -4 12 -7 26 -7 21 0 67 40 219 191 l193 191 83 24 c46 13 85 24
88 24 3 0 -88 -94 -202 -208 -114 -114 -207 -211 -207 -215 0 -4 12 -7 27 -7
21 0 74 47 267 239 205 202 252 244 314 277 127 67 217 164 247 264 4 14 142
160 306 326 243 244 299 305 299 327 0 15 -3 27 -7 27 -4 0 -136 -129 -294
-286 l-287 -287 -4 59 -4 59 298 301 c244 246 298 305 298 328 0 22 -3 25 -17
17 -10 -5 -148 -141 -308 -300 l-290 -291 -16 47 -17 48 324 326 c264 265 324
330 324 352 0 15 -3 27 -7 27 -4 0 -154 -147 -334 -326 l-326 -325 -18 46 -17
47 351 352 c287 288 351 357 351 379 0 15 -3 27 -7 27 -4 0 -168 -160 -364
-356 l-357 -357 -22 43 -22 43 386 386 c317 318 386 392 386 414 0 15 -3 27
-7 27 -4 0 -183 -176 -399 -391 l-391 -390 -28 36 -28 37 427 427 c353 354
426 432 426 454 0 23 -3 26 -17 18 -10 -5 -209 -201 -442 -434 l-424 -425 -30
35 -30 34 471 473 c390 390 472 477 472 499 0 15 -3 27 -7 27 -4 0 -226 -218
-493 -484 l-485 -485 -35 30 -34 29 527 528 c436 437 527 532 527 555 0 15 -3
27 -7 27 -4 0 -251 -244 -549 -541 l-542 -542 -47 18 -46 18 595 596 c495 496
596 601 596 624 0 15 -3 27 -7 27 -4 0 -284 -276 -623 -614 l-615 -614 -53 11
-53 11 676 676 c566 567 675 680 675 703 0 23 -3 26 -17 18 -10 -5 -326 -318
-703 -695 l-685 -686 -42 0 c-23 0 -49 3 -58 6 -13 5 164 188 744 768 635 636
761 766 761 789 0 15 -3 27 -7 27 -4 0 -364 -356 -799 -791 l-791 -791 -58 7
-57 8 856 856 c716 716 856 861 856 884 0 15 -3 27 -7 27 -4 0 -404 -397 -889
-881 l-882 -882 -35 7 c-31 6 -35 4 -41 -17 -16 -64 -113 -181 -329 -396
l-224 -223 -13 52 -13 52 1217 1217 c1021 1021 1216 1221 1216 1244 0 15 -3
27 -7 27 -4 0 -555 -547 -1225 -1217 l-1216 -1216 -11 39 c-6 21 -11 46 -11
54 0 8 556 571 1235 1250 1037 1038 1235 1240 1235 1263 0 15 -3 27 -7 27 -4
0 -544 -537 -1200 -1192 l-1193 -1193 0 42 c0 34 -4 42 -21 45 -16 2 6 28 113
133 73 72 162 154 198 183 36 28 95 87 130 130 35 42 495 509 1022 1037 801
803 958 965 958 988 0 15 -3 27 -7 27 -4 0 -404 -396 -889 -881 -860 -860
-880 -879 -848 -813 19 38 41 90 51 116 9 27 25 50 35 54 10 3 30 22 45 42 15
20 384 395 820 832 662 664 793 800 793 823 0 15 -3 27 -7 27 -4 0 -350 -342
-769 -761 l-760 -760 15 80 16 81 753 753 c632 633 752 757 752 780 0 23 -3
26 -17 18 -10 -5 -349 -341 -753 -745 l-735 -736 -11 53 -10 52 763 765 c636
639 763 770 763 793 0 15 -3 27 -7 27 -4 0 -353 -345 -775 -767 -665 -664
-769 -765 -782 -754 -9 8 -16 29 -16 50 0 34 35 71 790 826 660 660 790 795
790 818 0 15 -3 27 -7 27 -4 0 -359 -352 -789 -781 l-782 -782 -4 62 -3 61
728 728 c401 400 733 735 738 745 8 14 5 17 -18 17 -23 0 -142 -114 -743 -715
l-716 -716 -11 53 -11 53 654 655 c360 361 654 659 654 663 0 4 -12 7 -27 7
-23 0 -134 -107 -663 -636 l-636 -635 -12 39 c-7 22 -12 46 -12 53 0 8 46 60
103 116 77 76 126 115 197 156 107 62 121 77 101 108 -12 21 8 42 368 403 210
210 381 385 381 389 0 4 -12 7 -27 7 -22 0 -95 -68 -408 -380 l-381 -380 -42
16 c-23 10 -42 20 -42 23 0 3 153 159 341 346 187 187 345 348 350 358 8 14 5
17 -18 17 -22 0 -88 -62 -378 -351 l-352 -350 -41 17 c-23 9 -42 19 -42 23 0
3 140 146 311 316 170 171 315 318 320 328 8 14 5 17 -17 17 -23 0 -85 -57
-350 -321 l-322 -322 -46 19 -46 19 295 295 c162 163 295 299 295 303 0 4 -12
7 -27 7 -22 0 -82 -55 -319 -291 l-292 -291 -47 17 -46 18 265 267 c146 146
266 269 266 273 0 4 -12 7 -27 7 -21 0 -77 -50 -289 -262 l-263 -261 -46 18
-47 17 236 237 c130 130 236 240 236 244 0 4 -12 7 -27 7 -21 0 -72 -46 -258
-230 -127 -126 -236 -230 -242 -230 -6 0 -28 7 -48 16 l-38 15 207 208 c113
114 206 210 206 214 0 4 -12 7 -27 7 -21 0 -68 -42 -232 -204 l-206 -204 -44
20 -45 19 177 177 c97 98 177 181 177 185 0 4 -12 7 -26 7 -21 0 -64 -37 -203
-174 l-176 -175 -44 20 -45 20 147 148 c81 81 147 151 147 154 0 4 -12 7 -26
7 -20 0 -60 -33 -173 -145 l-147 -145 -42 17 c-23 9 -42 19 -42 22 0 4 48 54
106 111 125 124 136 140 98 140 -20 0 -56 -30 -158 -130 -131 -129 -133 -130
-242 -175 l-109 -46 168 169 c92 92 167 171 167 175 0 4 -12 7 -27 7 -21 0
-68 -42 -232 -204 -188 -185 -212 -205 -271 -229 -36 -14 -83 -33 -105 -42
-33 -14 -1 23 198 222 130 131 237 242 237 246 0 4 -12 7 -27 7 -21 0 -79 -52
-302 -274 l-276 -273 -90 -38 c-49 -20 -97 -39 -105 -42 -8 -3 123 133 293
304 169 170 307 312 307 316 0 4 -12 7 -27 7 -22 0 -90 -63 -372 -344 l-346
-344 -110 -46 -110 -46 383 383 c210 210 382 386 382 390 0 4 -12 7 -27 7 -23
0 -183 -155 -981 -952z m573 -171 l-7 -64 -93 -93 -93 -93 -7 58 -8 57 104
104 c57 57 105 102 107 99 2 -2 1 -32 -3 -68z m-17 -212 l-4 -66 -79 -80 -80
-80 -6 58 -6 58 86 88 c47 48 87 87 89 87 3 0 2 -29 0 -65z m-5 -162 c-18
-116 -23 -127 -81 -185 -31 -32 -60 -58 -64 -58 -4 0 -8 26 -8 57 l0 58 77 77
c43 43 78 78 79 78 1 0 -1 -12 -3 -27z m538 -127 l28 -12 -244 -244 -245 -245
0 65 0 65 197 197 c209 209 198 202 264 174z m1022 12 c15 -12 -48 -78 -541
-571 l-559 -558 -28 36 -28 37 523 523 c353 353 533 526 554 533 43 14 60 14
79 0z m147 -78 c0 -3 -259 -264 -575 -580 l-575 -575 -32 33 -33 32 585 585
585 585 22 -38 c13 -20 23 -39 23 -42z m-1000 3 c5 -4 -562 -573 -571 -573 -4
0 -14 19 -24 42 l-16 42 262 262 261 261 42 -15 c22 -9 43 -17 46 -19z m150
-458 c-261 -261 -477 -475 -480 -475 -3 0 -15 17 -27 38 l-22 39 403 402 402
402 89 34 c50 18 94 34 100 34 5 1 -204 -213 -465 -474z m-39 419 l41 -17
-303 -303 c-167 -167 -307 -304 -310 -304 -4 0 -10 12 -13 26 -4 16 -13 25
-24 23 -9 -1 -21 -1 -27 0 -11 1 575 591 587 591 4 0 26 -7 49 -16z m932 -68
l15 -43 -547 -547 c-300 -300 -551 -546 -556 -546 -6 1 -23 12 -40 25 l-30 25
565 565 c311 311 568 565 572 565 3 0 13 -20 21 -44z m-755 20 c31 0 15 -18
-325 -358 -197 -197 -361 -358 -364 -358 -4 0 -14 19 -24 42 l-16 42 322 322
c292 292 326 323 349 317 14 -4 40 -7 58 -7z m855 -144 c15 -17 -19 -53 -517
-551 l-533 -533 -37 12 c-19 6 -39 16 -42 22 -4 6 231 248 521 538 473 473
530 527 560 528 20 1 39 -6 48 -16z m23 -177 c-6 -38 -38 -72 -460 -494 l-453
-453 -52 7 c-28 4 -51 10 -51 13 0 4 228 235 508 515 459 459 507 505 510 480
2 -15 1 -45 -2 -68z m-187 -312 c-5 -14 -31 -67 -56 -117 -42 -83 -62 -107
-221 -268 -183 -185 -227 -216 -327 -233 -38 -7 -27 5 285 319 179 179 326
326 327 326 1 0 -2 -12 -8 -27z m-1461 -311 l21 -38 -252 -251 -252 -251 -89
-25 -88 -25 313 314 c173 173 316 314 320 314 3 0 15 -17 27 -38z m81 -118
l25 -35 -180 -179 -179 -179 -70 -6 -70 -7 220 221 c121 122 222 221 225 221
3 0 16 -16 29 -36z m1 -259 l-120 -120 -70 -5 -70 -5 157 157 157 158 33 -32
33 -32 -120 -121z m217 29 c2 -5 -47 -59 -107 -119 -107 -106 -112 -109 -126
-90 -37 50 -33 61 72 166 l98 98 30 -23 c16 -12 31 -27 33 -32z m87 -55 c20
-12 36 -24 36 -27 0 -9 -253 -262 -262 -262 -3 0 -16 16 -29 36 l-22 36 119
119 c65 65 120 119 121 119 1 0 18 -9 37 -21z m176 -89 c0 -3 -70 -75 -156
-160 l-155 -155 -30 35 -29 35 141 141 142 142 43 -16 c24 -9 44 -19 44 -22z
m345 -60 l-80 -80 -64 0 -65 0 58 59 c46 47 68 61 100 67 22 3 56 12 76 20 59
21 57 17 -25 -66z m-200 40 l39 0 -59 -60 c-38 -38 -68 -60 -82 -60 -17 0 -23
-6 -23 -23 0 -15 -37 -59 -120 -142 l-121 -120 -29 35 -29 35 172 173 c135
135 176 172 192 168 11 -3 38 -6 60 -6z m-91 -271 l19 -41 -99 -99 -98 -99
-33 32 -33 32 107 108 c59 59 110 108 113 108 3 0 13 -19 24 -41z m22 -175
c-20 -73 -30 -93 -65 -127 l-41 -42 -32 33 -33 32 95 95 c52 52 95 95 97 95 1
0 -9 -39 -21 -86z"/>
<path d="M4496 650 c-339 -338 -622 -623 -627 -632 -8 -15 -5 -18 18 -18 23 0
123 95 611 583 321 320 592 594 603 610 11 15 19 37 17 50 -4 18 -106 -80
-622 -593z"/>
<path d="M4596 550 c-284 -283 -522 -523 -527 -533 -8 -14 -5 -17 18 -17 23 0
108 81 511 483 266 265 492 494 503 510 11 15 19 37 17 50 -4 18 -89 -62 -522
-493z"/>
<path d="M4696 450 c-229 -228 -422 -423 -427 -432 -8 -15 -5 -18 18 -18 22 0
93 66 411 383 211 210 392 394 403 410 11 15 19 37 17 50 -4 18 -72 -45 -422
-393z"/>
<path d="M4796 350 c-174 -173 -322 -323 -327 -332 -8 -15 -5 -18 17 -18 23 0
80 52 312 282 156 156 293 295 303 311 11 15 19 37 17 50 -4 18 -54 -28 -322
-293z"/>
<path d="M4896 250 c-119 -118 -222 -223 -227 -232 -8 -15 -5 -18 17 -18 21 0
65 37 211 183 205 202 226 227 221 260 -3 19 -37 -11 -222 -193z"/>
<path d="M4996 150 c-136 -133 -149 -150 -111 -150 18 0 49 23 111 82 102 98
127 130 122 161 -3 19 -19 7 -122 -93z"/>
</g>
</svg>
